<svg xmlns="http://www.w3.org/2000/svg" viewBox="0 0 64 64" fill="none">
  <path fill="#8f7a52" d="M34.17 7.00 L31.43 7.00 L29.51 7.18 L26.55 7.78 L23.99 8.60 L21.44 9.78 L19.16 11.20 L16.88 13.07 L16.10 13.84 L16.10 13.98 L31.93 17.63 L40.05 19.73 L40.14 19.91 L24.08 33.28 L10.67 44.77 L10.72 45.00 L12.27 46.92 L14.92 49.66 L17.52 51.89 L18.75 52.80 L19.75 53.40 L42.06 23.61 L42.20 23.56 L42.15 23.97 L28.05 56.50 L28.10 56.68 L30.79 56.95 L33.48 56.91 L36.81 56.45 L39.50 55.68 L41.10 55.04 L42.83 54.17 L42.83 51.53 L42.93 51.43 L42.97 25.80 L43.06 24.34 L43.25 24.47 L43.88 26.53 L45.80 33.73 L49.18 48.33 L49.50 48.15 L50.41 47.15 L52.05 45.00 L53.24 43.09 L54.19 41.22 L54.97 39.34 L55.61 37.38 L56.16 34.87 L56.52 31.68 L56.43 27.80 L56.25 26.25 L55.65 23.70 L54.92 21.60 L53.83 19.27 L52.55 17.17 L51.18 15.39 L48.90 13.02 L47.21 11.61 L45.02 10.15 L42.93 9.05 L41.38 8.41 L38.59 7.59 L36.36 7.18 Z M38.77 20.32 L29.56 20.50 L9.85 21.14 L9.30 22.42 L8.62 24.52 L8.03 26.94 L7.66 29.08 L7.43 31.77 L7.43 34.24 L7.71 36.43 L7.89 36.47 L38.41 20.64 L38.73 20.46 Z"/>
</svg>
